<svg width="256" height="256" viewBox="0 0 256 256" fill="none" xmlns="http://www.w3.org/2000/svg">
  <defs>
    <linearGradient id="grad_eng" x1="0" y1="0" x2="256" y2="256" gradientUnits="userSpaceOnUse">
      <stop stop-color="#EF4444" />
      <stop offset="1" stop-color="#3B82F6" />
    </linearGradient>
    <filter id="shadow_eng" x="-20" y="-20" width="300" height="300" filterUnits="userSpaceOnUse">
      <feDropShadow dx="0" dy="8" stdDeviation="15" flood-color="#000" flood-opacity="0.2"/>
    </filter>
  </defs>
  
  <g filter="url(#shadow_eng)">
    <!-- Speech Bubble Main -->
    <path d="M40 80C40 46.86 79.4 20 128 20C176.6 20 216 46.86 216 80C216 113.14 176.6 140 128 140C118.6 140 109.6 138.9 101.2 136.9L60 160V126.8C47.6 115.1 40 98.6 40 80Z" fill="white"/>
    
    <!-- Flag / Color Accent inside -->
    <path d="M40 80C40 46.86 79.4 20 128 20C176.6 20 216 46.86 216 80C216 113.14 176.6 140 128 140L60 160L101 136C65 130 40 100 40 80Z" fill="url(#grad_eng)" opacity="0.1"/>
    
    <!-- Text -->
    <text x="128" y="95" font-family="Arial" font-weight="bold" font-size="40" fill="#1E40AF" text-anchor="middle">Hello!</text>
    
    <!-- Second Bubble (Small) -->
    <circle cx="190" cy="180" r="30" fill="#FBBF24" stroke="white" stroke-width="4"/>
    <text x="190" y="190" font-family="Arial" font-weight="bold" font-size="20" fill="white" text-anchor="middle">?</text>
  </g>
</svg>
