<svg width="256" height="256" viewBox="0 0 256 256" fill="none" xmlns="http://www.w3.org/2000/svg">
  <defs>
    <linearGradient id="grad_map" x1="20" y1="20" x2="236" y2="236" gradientUnits="userSpaceOnUse">
      <stop stop-color="#34D399" />
      <stop offset="1" stop-color="#059669" />
    </linearGradient>
    <filter id="shadow_map" x="-20" y="-20" width="300" height="300" filterUnits="userSpaceOnUse">
      <feDropShadow dx="0" dy="10" stdDeviation="15" flood-color="#000" flood-opacity="0.2"/>
    </filter>
  </defs>
  
  <g filter="url(#shadow_map)">
    <!-- Folded Map -->
    <!-- Left Section -->
    <path d="M40 60 L90 40 L90 200 L40 220 Z" fill="#D1FAE5"/>
    <path d="M40 60 L90 40 L90 200 L40 220 Z" fill="url(#grad_map)" fill-opacity="0.2"/>
    
    <!-- Middle Section -->
    <path d="M90 40 L166 60 L166 220 L90 200 Z" fill="#F0FDFA"/>
    
    <!-- Right Section -->
    <path d="M166 60 L216 40 L216 200 L166 220 Z" fill="#D1FAE5"/>
    <path d="M166 60 L216 40 L216 200 L166 220 Z" fill="url(#grad_map)" fill-opacity="0.1"/>

    <!-- Map Paths/Roads -->
    <path d="M90 80 Q 110 90, 130 80 T 166 90" stroke="#059669" stroke-width="4" fill="none"/>
    <path d="M50 100 L 90 90" stroke="#059669" stroke-width="4" stroke-dasharray="8 4"/>
    <path d="M166 150 L 206 140" stroke="#059669" stroke-width="4"/>

    <!-- Location Pin -->
    <path d="M140 100 C140 100 160 120 140 150 C120 120 140 120 140 120" fill="#EF4444" stroke="white" stroke-width="2"/>
    <circle cx="140" cy="115" r="6" fill="white"/>
  </g>
</svg>
