<svg width="256" height="256" viewBox="0 0 256 256" fill="none" xmlns="http://www.w3.org/2000/svg">
  <defs>
    <linearGradient id="grad_lang" x1="20" y1="20" x2="236" y2="236" gradientUnits="userSpaceOnUse">
      <stop stop-color="#F97316" />
      <stop offset="1" stop-color="#FBBF24" />
    </linearGradient>
    <filter id="shadow_lang" x="-20" y="-20" width="300" height="300" filterUnits="userSpaceOnUse">
      <feDropShadow dx="0" dy="8" stdDeviation="10" flood-color="#000" flood-opacity="0.2"/>
    </filter>
  </defs>
  
  <g filter="url(#shadow_lang)">
    <!-- Book Base -->
    <rect x="40" y="60" width="176" height="150" rx="12" fill="url(#grad_lang)"/>
    <rect x="50" y="50" width="156" height="150" rx="8" fill="white" fill-opacity="0.9"/>
    
    <!-- Text Lines -->
    <rect x="70" y="80" width="116" height="8" rx="4" fill="#E5E7EB"/>
    <rect x="70" y="100" width="116" height="8" rx="4" fill="#E5E7EB"/>
    <rect x="70" y="120" width="80" height="8" rx="4" fill="#E5E7EB"/>

    <!-- Large Letter A -->
    <text x="140" y="180" font-family="Arial" font-weight="900" font-size="80" fill="#F97316" transform="rotate(-10 140 180)">A</text>
    
    <!-- Feather/Pen -->
    <path d="M200 40C200 40 220 20 230 10C230 10 190 60 180 100L175 110L160 100L165 90C165 90 190 50 200 40Z" fill="#3B82F6"/>
  </g>
</svg>
