<svg width="256" height="256" viewBox="0 0 256 256" fill="none" xmlns="http://www.w3.org/2000/svg">
  <defs>
    <linearGradient id="grad_book1" x1="20" y1="180" x2="236" y2="180" gradientUnits="userSpaceOnUse">
      <stop stop-color="#3B82F6" />
      <stop offset="1" stop-color="#06B6D4" />
    </linearGradient>
    <linearGradient id="grad_book2" x1="20" y1="130" x2="236" y2="130" gradientUnits="userSpaceOnUse">
      <stop stop-color="#8B5CF6" />
      <stop offset="1" stop-color="#EC4899" />
    </linearGradient>
    <linearGradient id="grad_book3" x1="20" y1="80" x2="236" y2="80" gradientUnits="userSpaceOnUse">
      <stop stop-color="#F59E0B" />
      <stop offset="1" stop-color="#EF4444" />
    </linearGradient>
    <filter id="shadow" x="-20" y="-20" width="300" height="300" filterUnits="userSpaceOnUse">
      <feDropShadow dx="0" dy="10" stdDeviation="15" flood-color="#000" flood-opacity="0.2"/>
    </filter>
  </defs>
  
  <g filter="url(#shadow)">
    <!-- Book 1 (Bottom) -->
    <path d="M40 180C40 180 60 190 128 190C196 190 216 180 216 180V210C216 210 196 220 128 220C60 220 40 210 40 210V180Z" fill="white" fill-opacity="0.3"/>
    <path d="M40 180C40 180 60 190 128 190C196 190 216 180 216 180V205C216 205 196 215 128 215C60 215 40 205 40 205V180Z" fill="url(#grad_book1)"/>
    <path d="M40 180C40 180 60 190 128 190C196 190 216 180 216 180H40Z" fill="#1E3A8A" fill-opacity="0.2"/>

    <!-- Book 2 (Middle) -->
    <path d="M45 130C45 130 65 140 128 140C191 140 211 130 211 130V160C211 160 191 170 128 170C65 170 45 160 45 160V130Z" fill="white" fill-opacity="0.3"/>
    <path d="M45 130C45 130 65 140 128 140C191 140 211 130 211 130V155C211 155 191 165 128 165C65 165 45 155 45 155V130Z" fill="url(#grad_book2)"/>

    <!-- Book 3 (Top) -->
    <path d="M50 80C50 80 70 90 128 90C186 90 206 80 206 80V110C206 110 186 120 128 120C70 120 50 110 50 110V80Z" fill="white" fill-opacity="0.3"/>
    <path d="M50 80C50 80 70 90 128 90C186 90 206 80 206 80V105C206 105 186 115 128 115C70 115 50 105 50 105V80Z" fill="url(#grad_book3)"/>
    
    <!-- Top Cover -->
    <path d="M50 80C50 80 70 90 128 90C186 90 206 80 206 80L168 50C168 50 148 60 90 60C32 60 12 50 12 50L50 80Z" fill="#FDE68A" fill-opacity="0.9"/>
  </g>
</svg>
